<?xml version="1.0" encoding="utf-8"?>
<!-- Generator: Adobe Illustrator 27.5.0, SVG Export Plug-In . SVG Version: 6.00 Build 0)  -->
<svg version="1.1" id="Layer_1" xmlns="http://www.w3.org/2000/svg" xmlns:xlink="http://www.w3.org/1999/xlink" x="0px" y="0px"
	 viewBox="0 0 56 56" style="enable-background:new 0 0 56 56;" xml:space="preserve">
<style type="text/css">
	.st0{fill:none;stroke:#F9DCC4;stroke-width:5;stroke-linecap:round;stroke-linejoin:round;}
</style>
<g id="Icon_feather-instagram" transform="translate(0.6 0.6)">
	<path id="Path_15" class="st0" d="M14.99,2.58h24.82c6.86,0,12.41,5.56,12.41,12.41v24.82c0,6.86-5.56,12.41-12.41,12.41H14.99
		c-6.86,0-12.41-5.56-12.41-12.41V14.99C2.58,8.13,8.13,2.58,14.99,2.58z"/>
	<path id="Path_16" class="st0" d="M40.04,25.45c1.03,6.93-3.76,13.38-10.69,14.41c-6.93,1.03-13.38-3.76-14.41-10.69
		c-1.03-6.93,3.76-13.38,10.69-14.41c1.23-0.18,2.48-0.18,3.71,0C34.88,15.58,39.22,19.92,40.04,25.45z"/>
	<path id="Path_17" class="st0" d="M41.05,13.75L41.05,13.75"/>
</g>
</svg>
