<?xml version="1.0" encoding="utf-8"?>
<!-- Generator: Adobe Illustrator 27.5.0, SVG Export Plug-In . SVG Version: 6.00 Build 0)  -->
<svg version="1.1" id="Layer_1" xmlns="http://www.w3.org/2000/svg" xmlns:xlink="http://www.w3.org/1999/xlink" x="0px" y="0px"
	 viewBox="0 0 56 56" style="enable-background:new 0 0 56 56;" xml:space="preserve">
<style type="text/css">
	.st0{clip-path:url(#SVGID_00000088091578745412638060000013045507990964144787_);}
	.st1{fill:#F9DCC4;}
</style>
<g>
	<defs>
		<rect id="SVGID_1_" x="0.85" y="0.53" width="54.29" height="54.93"/>
	</defs>
	<clipPath id="SVGID_00000077321457842014487260000014709875443004908162_">
		<use xlink:href="#SVGID_1_"  style="overflow:visible;"/>
	</clipPath>
	<g id="Group_1" style="clip-path:url(#SVGID_00000077321457842014487260000014709875443004908162_);">
		<path id="Path_4" class="st1" d="M8.58,30.03c-0.72-0.5-1.72-0.32-2.22,0.4c0,0,0,0,0,0C6.03,31.34,5.9,32.31,6,33.28
			c0,0.1,0.06,0.2,0.14,0.26l0,0c0.09,0.06,0.19,0.08,0.29,0.04c0.93-0.25,1.8-0.7,2.53-1.33c0.5-0.73,0.32-1.72-0.4-2.22"/>
		<path id="Path_5" class="st1" d="M1.4,30.73c-0.66,0.58-0.73,1.59-0.15,2.25c0.8,0.54,1.72,0.9,2.68,1.04
			c0.1,0.02,0.21-0.01,0.29-0.08l0,0c0.08-0.07,0.12-0.17,0.11-0.28c-0.01-0.97-0.24-1.92-0.67-2.79
			C3.07,30.22,2.06,30.15,1.4,30.73"/>
		<path id="Path_6" class="st1" d="M10.54,36.71c0.31-0.82-0.1-1.75-0.93-2.06c0,0,0,0,0,0c-0.96-0.1-1.94,0.02-2.85,0.34
			c-0.1,0.03-0.18,0.1-0.22,0.2l0,0c-0.04,0.1-0.03,0.21,0.03,0.3c0.36,0.56,1.25,1.9,1.9,2.15C9.3,37.95,10.22,37.53,10.54,36.71"
			/>
		<path id="Path_7" class="st1" d="M51.79,28.04c-2.98-3.22-6.84-5.48-11.1-6.52l-4.78-1.38c-2.85-0.86-5.54-2.18-7.96-3.9
			c-1.71-1.32-2.69-3.38-2.61-5.54c-0.08-2.27,1.1-4.4,3.07-5.53c1.99-1.29,4.3-1.98,6.67-1.99c2.01-0.14,4.02,0.34,5.75,1.39
			c1.62,1.34,2.95,3,3.92,4.86l3.8,6.74h1.47l0.66-11.91l-0.15-0.08c-2.26-1.2-4.66-2.12-7.14-2.74c-2.58-0.62-5.23-0.93-7.89-0.92
			c-5.77-0.37-11.48,1.39-16.04,4.96c-3.59,3-5.65,7.44-5.62,12.12c-0.09,3.73,1.27,7.34,3.8,10.08c2.84,2.92,6.42,5,10.35,6.03
			l4.47,1.39c3,0.69,5.8,2.05,8.19,3.98c1.46,1.48,2.24,3.49,2.17,5.56c0.05,2.36-1.09,4.58-3.03,5.91
			c-2.39,1.59-5.23,2.37-8.1,2.24c-2.5,0.1-4.97-0.61-7.03-2.02c-2.12-1.69-3.86-3.83-5.09-6.25l-3.7-6.52h-1.48L14.3,51.12
			l0.14,0.08c2.47,1.26,5.05,2.28,7.71,3.05c3.07,0.86,6.25,1.27,9.44,1.23c6.15,0.36,12.24-1.3,17.35-4.74
			c4.03-2.95,6.36-7.68,6.23-12.67C55.26,34.44,54.06,30.89,51.79,28.04"/>
		<path id="Path_8" class="st1" d="M33,55.46c-17.12,0-26.08-6.41-28.2-20.19c-0.02-0.14,0.08-0.28,0.22-0.3
			c0.14-0.02,0.28,0.07,0.3,0.21c0,0,0,0,0,0.01C7.39,48.66,16.18,54.93,33,54.93c0.14,0.02,0.25,0.15,0.23,0.29
			C33.22,55.35,33.12,55.44,33,55.46"/>
	</g>
</g>
</svg>
